<svg width="90" height="83" viewBox="0 0 90 83" fill="none" xmlns="http://www.w3.org/2000/svg">
<path d="M66.5185 18.4265C53.8572 18.4265 43.5932 28.7282 43.5932 41.4364C43.5932 54.1446 53.8572 64.4463 66.5185 64.4463C79.1798 64.4463 89.4438 54.1446 89.4438 41.4364C89.4439 28.7282 79.1798 18.4266 66.5185 18.4265Z" fill="url(#paint0_linear_6389_1941)"/>
<path d="M41.8719 0.381104C30.9833 0.381104 20.5407 4.70658 12.8413 12.406C5.14188 20.1054 0.816406 30.548 0.816406 41.4366C0.816407 52.3252 5.14188 62.7678 12.8413 70.4672C20.5407 78.1666 30.9833 82.4921 41.8719 82.4921V41.4366V0.381104Z" fill="url(#paint1_linear_6389_1941)"/>
<defs>
<linearGradient id="paint0_linear_6389_1941" x1="65.5285" y1="18.4266" x2="65.4583" y2="61.8352" gradientUnits="userSpaceOnUse">
<stop offset="0.00113772" stop-color="#36619D"/>
<stop offset="0.210396" stop-color="#2FBEC5"/>
<stop offset="0.521083" stop-color="#FF982E"/>
<stop offset="0.988296" stop-color="#F73B41"/>
</linearGradient>
<linearGradient id="paint1_linear_6389_1941" x1="43.6447" y1="0.381108" x2="43.7695" y2="77.8333" gradientUnits="userSpaceOnUse">
<stop offset="0.00113772" stop-color="#36619D"/>
<stop offset="0.210396" stop-color="#2FBEC5"/>
<stop offset="0.521083" stop-color="#FF982E"/>
<stop offset="0.988296" stop-color="#F73B41"/>
</linearGradient>
</defs>
</svg>
